<?xml version="1.0" encoding="UTF-8"?>
<svg version="1.1" xmlns="http://www.w3.org/2000/svg" width="314" height="300">
<path d="M0 0 C1.71280151 0.01667725 1.71280151 0.01667725 3.46020508 0.03369141 C5.21264526 0.03876709 5.21264526 0.03876709 7.00048828 0.04394531 C11.64159769 0.34743871 15.35299819 0.70512485 19.10522461 3.59375 C22.88293284 8.00454934 25.24142957 13.00574843 27.578125 18.28149414 C29.3554583 21.90761306 31.65662509 25.04726042 34.02148438 28.31005859 C37.0863318 32.59564683 39.8445491 37.07444892 42.64770508 41.53369141 C46.61295394 47.8006017 50.58231112 54.05986522 54.71020508 60.22119141 C55.0842749 60.77983887 55.45834473 61.33848633 55.84375 61.9140625 C57.83023373 64.87369185 59.82343911 67.82875981 61.81762695 70.78320312 C64.03579967 74.07237136 66.24808219 77.36545219 68.46020508 80.65869141 C69.18449707 81.72845215 69.90878906 82.79821289 70.6550293 83.90039062 C71.32550293 84.8995752 71.99597656 85.89875977 72.68676758 86.92822266 C73.29343262 87.82774658 73.90009766 88.72727051 74.52514648 89.65405273 C75.83520508 91.84619141 75.83520508 91.84619141 75.83520508 93.84619141 C79.88765377 90.25986945 82.4561861 86.00264615 85.21020508 81.40869141 C85.68586914 80.6578125 86.1615332 79.90693359 86.65161133 79.13330078 C87.09118164 78.40046875 87.53075195 77.66763672 87.98364258 76.91259766 C88.38760254 76.25203369 88.7915625 75.59146973 89.20776367 74.91088867 C90.12475572 71.89337826 89.27718791 70.62300497 87.83520508 67.84619141 C86.42936863 65.54622818 84.99863464 63.30067169 83.50317383 61.06103516 C82.8606089 60.08676826 82.8606089 60.08676826 82.20506287 59.09281921 C80.81504134 56.98703508 79.41891567 54.88537586 78.02270508 52.78369141 C77.06372283 51.33332914 76.10522889 49.88264389 75.1472168 48.43164062 C73.71445831 46.261618 72.28144135 44.09177387 70.84674072 41.92303467 C66.49002667 35.33555214 62.19364908 28.70984155 57.91333008 22.07250977 C54.73430456 17.16387704 51.44698376 12.38083451 47.90942383 7.72119141 C46.83520508 5.84619141 46.83520508 5.84619141 46.83520508 1.84619141 C72.43529746 -0.48761786 72.43529746 -0.48761786 78.8815918 2.93164062 C81.98195378 6.08438465 83.21918122 10.22433315 84.72143555 14.30322266 C87.02151925 19.55479474 90.52730433 24.14421951 93.77270508 28.84619141 C95.17997025 30.93968767 96.58496746 33.03471049 97.98754883 35.13134766 C99.7498393 37.75027751 101.5133055 40.3684109 103.27709961 42.98632812 C109.65038319 52.45285837 115.82821834 62.03644608 121.95239258 71.66625977 C126.48920946 78.78962937 131.12483607 85.83684382 135.83520508 92.84619141 C138.64953902 89.36794837 141.18713398 85.87555146 143.58520508 82.09619141 C144.36238685 80.87473416 145.13974648 79.65339008 145.91723633 78.43212891 C146.58553467 77.37977051 146.58553467 77.37977051 147.26733398 76.30615234 C149.13954247 73.36869163 151.02428052 70.43942998 152.90942383 67.51025391 C153.99977331 65.81406599 155.08985556 64.11770671 156.17980957 62.42126465 C157.26084117 60.73964652 158.34342483 59.05902646 159.42602539 57.37841797 C160.43101074 55.81172363 160.43101074 55.81172363 161.45629883 54.21337891 C162.05885498 53.27606934 162.66141113 52.33875977 163.28222656 51.37304688 C164.59580701 49.23571664 165.76187891 47.11110561 166.83520508 44.84619141 C167.49520508 44.84619141 168.15520508 44.84619141 168.83520508 44.84619141 C169.17551758 43.86779297 169.17551758 43.86779297 169.52270508 42.86962891 C171.27367266 38.83615001 173.52510804 35.20603365 175.83520508 31.47119141 C176.56126953 30.28940308 176.56126953 30.28940308 177.30200195 29.08374023 C181.30136298 22.61598294 185.47529476 16.27692344 189.74145508 9.98291016 C191.84541088 7.01190565 191.84541088 7.01190565 193.05126953 4.18066406 C194.83520508 1.84619141 194.83520508 1.84619141 197.83789062 1.27856445 C199.03712158 1.30474854 200.23635254 1.33093262 201.47192383 1.35791016 C202.7706543 1.37402344 204.06938477 1.39013672 205.4074707 1.40673828 C206.77923207 1.44851532 208.15097685 1.49084006 209.52270508 1.53369141 C210.9061289 1.55877395 212.28959585 1.58158723 213.6730957 1.60205078 C217.06155271 1.66108313 220.44783892 1.74339058 223.83520508 1.84619141 C223.26634706 5.94684373 221.96129827 8.5877586 219.66723633 12.01416016 C219.02077148 12.990625 218.37430664 13.96708984 217.70825195 14.97314453 C216.68828125 16.48811523 216.68828125 16.48811523 215.64770508 18.03369141 C211.37434279 24.44165027 207.16950498 30.85216943 203.24511719 37.48071289 C200.97227059 41.29397881 198.590027 45.03660051 196.21020508 48.78369141 C195.1554866 50.44903637 194.10080001 52.11440153 193.04614258 53.77978516 C192.5134375 54.62009277 191.98073242 55.46040039 191.43188477 56.32617188 C188.89509111 60.32996149 186.36534591 64.33819565 183.83520508 68.34619141 C180.81309443 73.13218755 177.79026722 77.91772647 174.76489258 82.70166016 C174.25313477 83.51119141 173.74137695 84.32072266 173.21411133 85.15478516 C172.26652612 86.65369267 171.31865026 88.15241651 170.37036133 89.65087891 C169.92305664 90.35857422 169.47575195 91.06626953 169.01489258 91.79541016 C168.52021484 92.54226074 168.02553711 93.28911133 167.51586914 94.05859375 C166.14654977 96.32978617 165.03770475 98.5211611 163.92797852 100.91894531 C158.70819627 111.51957948 158.70819627 111.51957948 153.78778076 113.79159546 C148.87665935 115.09328311 144.01802317 115.12837451 138.9675293 114.93212891 C136.32651805 114.8459078 133.72879041 114.93112215 131.08911133 115.03369141 C119.28586451 115.10085071 119.28586451 115.10085071 115.01586914 111.17236328 C111.50104006 106.7856877 109.0816209 101.97584833 106.83520508 96.84619141 C104.44223722 99.81223544 102.16040589 102.73309231 100.14770508 105.97119141 C99.73133789 106.63376953 99.3149707 107.29634766 98.88598633 107.97900391 C97.6896459 109.96673345 97.6896459 109.96673345 96.83520508 112.84619141 C64.06469068 116.75488826 64.06469068 116.75488826 54.7722168 110.92431641 C50.11526836 105.92862726 47.38403175 99.90976093 44.63851929 93.71066284 C41.23888785 86.14984272 36.50295515 79.49527241 31.8142395 72.68844604 C29.46559199 69.26678185 27.16865795 65.81090947 24.86645508 62.35791016 C24.00610816 61.07269559 23.14543859 59.78769694 22.28442383 58.50292969 C11.54770508 42.47431641 11.54770508 42.47431641 7.83520508 36.59619141 C7.25770508 35.68353516 6.68020508 34.77087891 6.08520508 33.83056641 C5.67270508 33.17572266 5.26020508 32.52087891 4.83520508 31.84619141 C1.86336878 35.4605869 -0.83567714 39.19650003 -3.41479492 43.09619141 C-3.83535156 43.72968506 -4.2559082 44.36317871 -4.68920898 45.01586914 C-13.57634188 58.47061151 -22.18307785 72.11435371 -30.81420898 85.73413086 C-31.99650288 87.58521825 -33.19230672 89.42775297 -34.40209961 91.26098633 C-36.98237385 95.19812893 -39.30989221 98.91507817 -40.98120117 103.32666016 C-42.64020555 107.36591156 -44.09837885 110.8516702 -48.16479492 112.84619141 C-58.03175325 114.53509087 -68.24792054 113.68998343 -78.16479492 112.84619141 C-77.54396909 109.84177823 -76.57658287 107.58655631 -74.97729492 104.97509766 C-74.5305542 104.24274902 -74.08381348 103.51040039 -73.62353516 102.75585938 C-72.90145874 101.59401123 -72.90145874 101.59401123 -72.16479492 100.40869141 C-71.66858643 99.60318848 -71.17237793 98.79768555 -70.66113281 97.96777344 C-67.08374033 92.20703085 -63.30632558 86.63825617 -59.39916992 81.09619141 C-55.57664577 75.53615627 -52.07361975 69.77849303 -48.52563477 64.04101562 C-42.11672689 53.70443833 -35.61241358 43.43941504 -28.82202148 33.34912109 C-25.76896843 28.79537314 -22.8185418 24.18397441 -19.91479492 19.53369141 C-19.3325415 18.60133667 -19.3325415 18.60133667 -18.73852539 17.65014648 C-18.35841309 17.0380835 -17.97830078 16.42602051 -17.58666992 15.79541016 C-17.1907666 15.17738525 -16.79486328 14.55936035 -16.38696289 13.92260742 C-15.08464457 11.79658841 -15.08464457 11.79658841 -13.9777832 9.20532227 C-10.63010621 2.29524668 -7.67535358 0.46716101 0 0 Z " fill="#C3AC85" transform="translate(83.164794921875,91.15380859375)"/>
<path d="M0 0 C2.07817223 0.07681981 4.15004784 0.2018021 6.22566223 0.32939148 C7.64347442 0.37959959 9.061457 0.4252189 10.47956848 0.46611023 C13.94016176 0.57585966 17.39432585 0.74809041 20.85066223 0.95439148 C19.90999664 5.38722501 17.66091029 8.83875741 15.28816223 12.64189148 C14.812901 13.41210632 14.33763977 14.18232117 13.84797668 14.97587585 C8.82646415 23.07380911 3.67547802 31.09070204 -1.48942566 39.09770203 C-5.49458459 45.3161464 -9.38927375 51.58456647 -13.14933777 57.95439148 C-16.32977623 57.36578907 -16.97986282 57.16497168 -19.11418152 54.51298523 C-19.76515808 53.48302429 -20.41613464 52.45306335 -21.08683777 51.39189148 C-21.77519714 50.30778992 -22.46355652 49.22368835 -23.17277527 48.10673523 C-23.82504089 47.06646179 -24.47730652 46.02618835 -25.14933777 44.95439148 C-25.97304871 43.74976257 -25.97304871 43.74976257 -26.81340027 42.52079773 C-27.27488464 41.83888367 -27.73636902 41.1569696 -28.21183777 40.45439148 C-28.61531433 39.86657898 -29.01879089 39.27876648 -29.43449402 38.67314148 C-30.41544114 36.3145801 -30.07132873 35.32333477 -29.14933777 32.95439148 C-28.16243882 31.23428795 -27.11307699 29.5494115 -26.02433777 27.89189148 C-25.39398621 26.92251648 -24.76363464 25.95314148 -24.11418152 24.95439148 C-23.46578308 23.96439148 -22.81738464 22.97439148 -22.14933777 21.95439148 C-20.9584172 20.10241997 -19.77082687 18.24830201 -18.58683777 16.39189148 C-18.06992371 15.58622742 -17.55300964 14.78056335 -17.02043152 13.95048523 C-15.12490229 11.11467153 -15.12490229 11.11467153 -14.13957214 8.41044617 C-10.90444023 1.24186109 -7.82286831 -0.08668147 0 0 Z " fill="#CDB99C" transform="translate(227.1493377685547,92.04560852050781)"/>
<path d="M0 0 C1.13151489 0.13740601 1.13151489 0.13740601 2.28588867 0.27758789 C2.6494043 0.96723633 3.01291992 1.65688477 3.38745117 2.36743164 C6.37846987 7.95833582 9.48866905 13.21865932 13.28198242 18.30493164 C14.28588867 20.27758789 14.28588867 20.27758789 14.05102539 22.08886719 C13.09391869 24.82672984 11.70005573 26.88520718 10.04760742 29.26977539 C9.064375 30.69870117 9.064375 30.69870117 8.0612793 32.15649414 C7.37227539 33.14520508 6.68327148 34.13391602 5.97338867 35.15258789 C4.62296142 37.10820186 3.27269647 39.06392792 1.92260742 41.01977539 C1.02094849 42.3169751 1.02094849 42.3169751 0.10107422 43.64038086 C-1.8131365 46.323605 -1.8131365 46.323605 -3.50683594 49.56958008 C-5.71411133 52.27758789 -5.71411133 52.27758789 -8.92211914 52.95874023 C-10.77595215 52.91160889 -10.77595215 52.91160889 -12.66723633 52.86352539 C-13.32745789 52.85503571 -13.98767944 52.84654602 -14.66790771 52.83779907 C-16.76833186 52.80431639 -18.86485679 52.7290731 -20.96411133 52.65258789 C-22.39113903 52.62248045 -23.81822719 52.59510597 -25.24536133 52.57055664 C-28.73620306 52.50455007 -32.22477643 52.40107615 -35.71411133 52.27758789 C-35.15552561 48.30332305 -34.01062948 45.85000818 -31.67895508 42.60180664 C-31.0419165 41.70212158 -30.40487793 40.80243652 -29.74853516 39.87548828 C-28.71055786 38.43484009 -28.71055786 38.43484009 -27.65161133 36.96508789 C-23.06422404 30.52503176 -18.5356559 24.0819849 -14.26879883 17.42602539 C-13.55731689 16.32427979 -12.84583496 15.22253418 -12.11279297 14.08740234 C-10.73891014 11.94883997 -9.37832311 9.80166809 -8.03222656 7.64550781 C-7.40775635 6.6797583 -6.78328613 5.71400879 -6.13989258 4.71899414 C-5.5976001 3.85991455 -5.05530762 3.00083496 -4.49658203 2.11572266 C-2.71411133 0.27758789 -2.71411133 0.27758789 0 0 Z " fill="#D1BB91" transform="translate(91.714111328125,151.722412109375)"/>
<path d="M0 0 C2.65641437 0.07323448 5.26406777 0.20020326 7.91015625 0.38671875 C9.27519303 0.44196831 10.64044507 0.49214603 12.00585938 0.53710938 C15.33364017 0.66645775 18.6503693 0.84688263 21.97265625 1.07421875 C21.40379823 5.17487107 20.09874944 7.81578594 17.8046875 11.2421875 C17.15822266 12.21865234 16.51175781 13.19511719 15.84570312 14.20117188 C15.16572266 15.21115234 14.48574219 16.22113281 13.78515625 17.26171875 C9.51179396 23.66967762 5.30695615 30.08019678 1.38256836 36.70874023 C-0.89027824 40.52200615 -3.27252182 44.26462786 -5.65234375 48.01171875 C-6.70706223 49.67706371 -7.76174882 51.34242887 -8.81640625 53.0078125 C-9.34911133 53.84812012 -9.88181641 54.68842773 -10.43066406 55.55419922 C-12.96745772 59.55798884 -15.49720292 63.56622299 -18.02734375 67.57421875 C-21.0494544 72.3602149 -24.0722816 77.14575381 -27.09765625 81.9296875 C-33.43853984 91.95865663 -39.74994693 102.00538536 -46.02734375 112.07421875 C-46.35734375 111.08421875 -46.68734375 110.09421875 -47.02734375 109.07421875 C-45.48503983 106.31744363 -43.79820113 103.76104259 -42.0078125 101.1640625 C-39.35813638 97.13768633 -38.40399628 93.86135094 -38.02734375 89.07421875 C-37.36734375 89.07421875 -36.70734375 89.07421875 -36.02734375 89.07421875 C-36.02734375 87.42421875 -36.02734375 85.77421875 -36.02734375 84.07421875 C-33.02734375 83.07421875 -33.02734375 83.07421875 -30.02734375 84.07421875 C-29.75921875 83.35234375 -29.49109375 82.63046875 -29.21484375 81.88671875 C-28.02734375 79.07421875 -28.02734375 79.07421875 -26.52734375 76.63671875 C-24.89011171 73.83978068 -24.01396261 71.15740268 -23.02734375 68.07421875 C-22.06888639 65.72077889 -21.05092369 63.4005368 -20.02734375 61.07421875 C-19.36734375 61.07421875 -18.70734375 61.07421875 -18.02734375 61.07421875 C-17.62515625 59.74390625 -17.62515625 59.74390625 -17.21484375 58.38671875 C-16.02734375 55.07421875 -16.02734375 55.07421875 -14.33984375 52.38671875 C-13.90671875 51.62359375 -13.47359375 50.86046875 -13.02734375 50.07421875 C-13.35734375 49.08421875 -13.68734375 48.09421875 -14.02734375 47.07421875 C-13.07859375 47.01234375 -12.12984375 46.95046875 -11.15234375 46.88671875 C-10.12109375 46.61859375 -9.08984375 46.35046875 -8.02734375 46.07421875 C-6.62476499 43.69302629 -6.62476499 43.69302629 -6.02734375 41.07421875 C-5.53234375 40.08421875 -5.53234375 40.08421875 -5.02734375 39.07421875 C-4.90230469 38.44515625 -4.77726562 37.81609375 -4.6484375 37.16796875 C-3.91079022 34.68130874 -2.84701115 33.46456999 -1.08984375 31.57421875 C1.10729523 29.19893337 2.6322604 27.02697483 3.97265625 24.07421875 C4.96265625 24.07421875 5.95265625 24.07421875 6.97265625 24.07421875 C7.07578125 23.00171875 7.17890625 21.92921875 7.28515625 20.82421875 C7.97431139 17.06519073 8.68373256 15.93537336 10.97265625 13.07421875 C11.32878722 11.41227422 11.66473933 9.74576775 11.97265625 8.07421875 C12.63265625 7.41421875 13.29265625 6.75421875 13.97265625 6.07421875 C7.70265625 6.07421875 1.43265625 6.07421875 -5.02734375 6.07421875 C-6.01734375 8.38421875 -7.00734375 10.69421875 -8.02734375 13.07421875 C-9.02734375 14.07421875 -10.02734375 15.07421875 -11.02734375 16.07421875 C-11.21296875 17.31171875 -11.21296875 17.31171875 -11.40234375 18.57421875 C-12.02734375 21.07421875 -12.02734375 21.07421875 -14.58984375 22.88671875 C-15.39421875 23.27859375 -16.19859375 23.67046875 -17.02734375 24.07421875 C-17.02734375 23.41421875 -17.02734375 22.75421875 -17.02734375 22.07421875 C-17.68734375 22.07421875 -18.34734375 22.07421875 -19.02734375 22.07421875 C-19.35734375 24.05421875 -19.68734375 26.03421875 -20.02734375 28.07421875 C-21.01734375 28.07421875 -22.00734375 28.07421875 -23.02734375 28.07421875 C-21.66952711 24.37830808 -19.98898179 21.24423588 -17.83984375 17.94921875 C-17.28941406 17.10101563 -16.73898437 16.2528125 -16.171875 15.37890625 C-15.11033203 13.74308594 -15.11033203 13.74308594 -14.02734375 12.07421875 C-13.60686768 11.15181396 -13.1863916 10.22940918 -12.75317383 9.27905273 C-9.52038292 2.88102485 -7.36303486 0.37239882 0 0 Z " fill="#88715B" transform="translate(285.02734375,91.92578125)"/>
<path d="M0 0 C4.26076901 1.42025634 5.44220641 4.56236978 7.625 8.25 C11.4863305 14.61204894 15.5380541 20.73253235 19.83203125 26.8125 C22.83195667 31.22320116 25.51137014 35.798539 28.17578125 40.41796875 C30.06351146 43.08989524 31.11878512 43.69899782 34 45 C35.125 46.65625 35.125 46.65625 36 48.5 C37.42516694 51.37376015 37.42516694 51.37376015 40.125 53 C40.74375 53.33 41.3625 53.66 42 54 C42.68939809 56.32671854 43.35466922 58.66067594 44 61 C45.97827485 63.39909163 45.97827485 63.39909163 48 65 C48.99 64.67 49.98 64.34 51 64 C51 65.65 51 67.3 51 69 C51.99 69.495 51.99 69.495 53 70 C53.625 73.0625 53.625 73.0625 54 76 C59.07563165 77.69187722 64.4567183 77.30407658 69.76904297 77.35009766 C71.16960261 77.36665888 72.57007766 77.39395225 73.97021484 77.43212891 C75.99881395 77.48708507 78.02544297 77.50879305 80.0546875 77.5234375 C81.26624512 77.54325684 82.47780273 77.56307617 83.72607422 77.58349609 C87.90630062 76.83847439 89.39102796 75.27370186 92 72 C92 71.34 92 70.68 92 70 C92.61875 69.79375 93.2375 69.5875 93.875 69.375 C96.87022113 67.43691574 97.15511762 65.3795295 98 62 C98 61.34 98 60.68 98 60 C98.99 60 99.98 60 101 60 C102.61328125 62.08984375 102.61328125 62.08984375 104.3125 64.9375 C107.0620402 69.4654662 109.91779722 73.86825552 112.93359375 78.22265625 C114 80 114 80 114 82 C113.34 82 112.68 82 112 82 C110.85498047 80.53125 110.85498047 80.53125 109.6171875 78.5 C109.17246094 77.778125 108.72773438 77.05625 108.26953125 76.3125 C107.80933594 75.549375 107.34914063 74.78625 106.875 74 C106.40707031 73.236875 105.93914062 72.47375 105.45703125 71.6875 C104.2981857 69.79550727 103.14623253 67.89965148 102 66 C99.58924416 68.9504773 97.32419992 71.88851117 95.3125 75.125 C94.89613281 75.78757812 94.47976562 76.45015625 94.05078125 77.1328125 C92.85444082 79.12054204 92.85444082 79.12054204 92 82 C59.22948561 85.90869685 59.22948561 85.90869685 49.93701172 80.078125 C45.28006329 75.08243585 42.54882667 69.06356953 39.80331421 62.86447144 C36.40368278 55.30365131 31.66775008 48.649081 26.97903442 41.84225464 C24.63038676 38.42059023 22.33346521 34.96471005 20.03125 31.51171875 C19.17089884 30.22658838 18.31022918 28.94167118 17.44921875 27.65698242 C6.68778222 11.59173279 6.68778222 11.59173279 3 5.8125 C2.13375 4.46091797 2.13375 4.46091797 1.25 3.08203125 C0 1 0 1 0 0 Z " fill="#978559" transform="translate(88,122)"/>
<path d="M0 0 C2.83832465 2.6792806 4.97133532 5.296722 7 8.625 C9.30924004 12.3490917 11.66977328 16.01980562 14.12109375 19.65234375 C14.66701172 20.46171387 15.21292969 21.27108398 15.77539062 22.10498047 C16.87619741 23.73258346 17.98032425 25.35794631 19.08789062 26.98095703 C19.59384766 27.73103027 20.09980469 28.48110352 20.62109375 29.25390625 C21.0792749 29.92752197 21.53745605 30.6011377 22.00952148 31.29516602 C23 33 23 33 23 35 C27.99114765 30.69483947 30.83395968 24.82304812 34.109375 19.203125 C34.58117187 18.4090625 35.05296875 17.615 35.5390625 16.796875 C35.96396973 16.06823242 36.38887695 15.33958984 36.82666016 14.58886719 C37.2138623 14.06454102 37.60106445 13.54021484 38 13 C38.66 13 39.32 13 40 13 C41.23681641 14.46875 41.23681641 14.46875 42.6015625 16.5 C43.33632812 17.5828125 43.33632812 17.5828125 44.0859375 18.6875 C44.59382813 19.450625 45.10171875 20.21375 45.625 21 C46.140625 21.763125 46.65625 22.52625 47.1875 23.3125 C48.46447818 25.20431952 49.73493968 27.10019898 51 29 C50.67 29.66 50.34 30.32 50 31 C48.01819787 29.20694093 46.79641779 27.6498386 45.4375 25.3125 C44.963125 24.549375 44.48875 23.78625 44 23 C43.34 23 42.68 23 42 23 C41.505 24.485 41.505 24.485 41 26 C40.34 26 39.68 26 39 26 C39 25.34 39 24.68 39 24 C36.27127334 25.97590636 36.27127334 25.97590636 34 29 C33.85036468 31.89116824 34.36850807 34.13399816 35 37 C28.25 39.125 28.25 39.125 26 38 C26 39.32 26 40.64 26 42 C24.35 42 22.7 42 21 42 C20.67 40.68 20.34 39.36 20 38 C19.67 38 19.34 38 19 38 C18.34 35.36 17.68 32.72 17 30 C16.34 30 15.68 30 15 30 C14.1028125 28.4221875 14.1028125 28.4221875 13.1875 26.8125 C11.91366341 24.57308622 10.61179435 22.37609806 9.25 20.1875 C8 18 8 18 8 16 C7.01 16 6.02 16 5 16 C0.59225513 5.62642369 0.59225513 5.62642369 0 0 Z " fill="#9A7E4E" transform="translate(136,150)"/>
<path d="M0 0 C0.72832031 0.13535156 1.45664063 0.27070313 2.20703125 0.41015625 C2.57054688 1.09980469 2.9340625 1.78945312 3.30859375 2.5 C6.29961245 8.09090418 9.40981162 13.35122768 13.203125 18.4375 C14.20703125 20.41015625 14.20703125 20.41015625 13.97216797 22.22143555 C13.01506127 24.9592982 11.62119831 27.01777554 9.96875 29.40234375 C8.98551758 30.83126953 8.98551758 30.83126953 7.98242188 32.2890625 C7.29341797 33.27777344 6.60441406 34.26648438 5.89453125 35.28515625 C4.544104 37.24077022 3.19383904 39.19649628 1.84375 41.15234375 C0.87912842 42.52156982 0.87912842 42.52156982 -0.10498047 43.91845703 C-1.47371304 45.9388916 -2.61246896 47.93649286 -3.7578125 50.08203125 C-5.79296875 52.41015625 -5.79296875 52.41015625 -9.68359375 52.99609375 C-11.13787812 52.95643145 -12.59158503 52.88516326 -14.04296875 52.78515625 C-14.78804687 52.75808594 -15.533125 52.73101562 -16.30078125 52.703125 C-18.13275868 52.63266433 -19.96324026 52.52504618 -21.79296875 52.41015625 C-21.79296875 51.75015625 -21.79296875 51.09015625 -21.79296875 50.41015625 C-20.76816406 50.41917969 -19.74335937 50.42820313 -18.6875 50.4375 C-11.30477014 50.58555799 -11.30477014 50.58555799 -4.71875 47.890625 C-2.86279213 45.24323765 -1.81064002 42.46317007 -0.79296875 39.41015625 C-1.45296875 39.41015625 -2.11296875 39.41015625 -2.79296875 39.41015625 C-1.74421877 36.78828131 -1.14365562 35.61644264 1.33203125 34.16015625 C1.95078125 33.91265625 2.56953125 33.66515625 3.20703125 33.41015625 C3.20703125 31.43015625 3.20703125 29.45015625 3.20703125 27.41015625 C4.19703125 27.41015625 5.18703125 27.41015625 6.20703125 27.41015625 C6.53703125 26.42015625 6.86703125 25.43015625 7.20703125 24.41015625 C7.86703125 24.08015625 8.52703125 23.75015625 9.20703125 23.41015625 C9.20703125 15.30468422 5.24328832 9.58961278 0.20703125 3.41015625 C-0.45296875 3.41015625 -1.11296875 3.41015625 -1.79296875 3.41015625 C-3.17871078 5.03746636 -3.17871078 5.03746636 -4.55078125 7.1796875 C-5.09065674 7.98172607 -5.63053223 8.78376465 -6.18676758 9.61010742 C-6.75806396 10.47224854 -7.32936035 11.33438965 -7.91796875 12.22265625 C-9.08989976 13.9656822 -10.26307376 15.70787308 -11.4375 17.44921875 C-12.00936035 18.2990332 -12.5812207 19.14884766 -13.17041016 20.02441406 C-16.26231737 24.57062492 -19.51182249 28.99894753 -22.79296875 33.41015625 C-22.79296875 29.28650237 -20.68738956 26.93087809 -18.41796875 23.66015625 C-17.49915677 22.32089061 -16.58121419 20.98102818 -15.6640625 19.640625 C-15.18952637 18.94888184 -14.71499023 18.25713867 -14.22607422 17.54443359 C-12.79781835 15.4173786 -11.43131047 13.26138648 -10.078125 11.0859375 C-9.42432861 10.05194824 -9.42432861 10.05194824 -8.75732422 8.99707031 C-7.91874423 7.6675282 -7.09305319 6.32975157 -6.28173828 4.98339844 C-3.41267382 0.50116189 -3.41267382 0.50116189 0 0 Z " fill="#A4967A" transform="translate(91.79296875,151.58984375)"/>
<path d="M0 0 C0.99 0 1.98 0 3 0 C4.61328125 2.08984375 4.61328125 2.08984375 6.3125 4.9375 C9.0620402 9.4654662 11.91779722 13.86825552 14.93359375 18.22265625 C16 20 16 20 16 22 C15.34 22 14.68 22 14 22 C12.85498047 20.53125 12.85498047 20.53125 11.6171875 18.5 C11.17246094 17.778125 10.72773438 17.05625 10.26953125 16.3125 C9.80933594 15.549375 9.34914063 14.78625 8.875 14 C8.40707031 13.236875 7.93914062 12.47375 7.45703125 11.6875 C6.2981857 9.79550727 5.14623253 7.89965148 4 6 C1.58924416 8.9504773 -0.67580008 11.88851117 -2.6875 15.125 C-3.31205078 16.11886719 -3.31205078 16.11886719 -3.94921875 17.1328125 C-5.14555918 19.12054204 -5.14555918 19.12054204 -6 22 C-40.24175328 24.71253404 -40.24175328 24.71253404 -47.92675781 20.33154297 C-52.2907323 15.95848948 -54.36319699 10.88013761 -56 5 C-55.01 5 -54.02 5 -53 5 C-52.03301609 6.64094239 -51.07701263 8.29014466 -50.19873047 9.98022461 C-46.90900431 16.37498444 -46.90900431 16.37498444 -41.046875 19.96484375 C-37.61004004 19.93521586 -34.39576122 19.52731534 -31 19 C-28.3756795 18.86146515 -25.75060543 18.73656229 -23.125 18.625 C-18.14929263 18.33483996 -13.71632185 17.66149781 -9 16 C-7.26461808 13.60775041 -7.26461808 13.60775041 -6 11 C-5.319375 10.525625 -4.63875 10.05125 -3.9375 9.5625 C-1.27203857 7.41293433 -0.83236507 5.26009653 0 2 C0 1.34 0 0.68 0 0 Z " fill="#7C694E" transform="translate(186,182)"/>
<path d="M0 0 C9.9 0 19.8 0 30 0 C29.19608756 3.21564974 28.66821816 4.83967945 27.0234375 7.51953125 C26.60682861 8.20160645 26.19021973 8.88368164 25.76098633 9.58642578 C25.0749231 10.68833252 25.0749231 10.68833252 24.375 11.8125 C23.66476685 12.96468018 23.66476685 12.96468018 22.94018555 14.14013672 C16.48172813 24.54663153 9.73613203 34.77202126 3 45 C2.505 43.515 2.505 43.515 2 42 C3.46324333 39.53637603 4.96334126 37.26077174 6.625 34.9375 C10.62430149 29.17043182 14.12748286 23.42536729 17 17 C16.34 16.67 15.68 16.34 15 16 C15.61875 15.773125 16.2375 15.54625 16.875 15.3125 C19.65974437 13.59251083 19.98038343 12.05884971 21 9 C21.65213539 7.65949948 22.31379969 6.32338632 23 5 C22.195625 5.020625 21.39125 5.04125 20.5625 5.0625 C18 5 18 5 17 4 C15.65732587 3.91368126 14.31025678 3.89293527 12.96484375 3.90234375 C12.15595703 3.90556641 11.34707031 3.90878906 10.51367188 3.91210938 C9.2384668 3.92467773 9.2384668 3.92467773 7.9375 3.9375 C7.08349609 3.94201172 6.22949219 3.94652344 5.34960938 3.95117188 C3.23304337 3.96299627 1.11651315 3.98093231 -1 4 C-0.67 2.68 -0.34 1.36 0 0 Z " fill="#998977" transform="translate(218,93)"/>
<path d="M0 0 C0.66 0.33 1.32 0.66 2 1 C1.38722388 3.96175123 0.74627478 5.38058783 -1 8 C-1.33 8.99 -1.66 9.98 -2 11 C-2.66 11 -3.32 11 -4 11 C-6.4582214 13.76549907 -7.68318489 16.5762807 -9 20 C-9.66 20.99 -10.32 21.98 -11 23 C-11.28875 23.639375 -11.5775 24.27875 -11.875 24.9375 C-13.22341842 27.40960044 -15.0169561 29.0169561 -17 31 C-17.33 31.99 -17.66 32.98 -18 34 C-18.639375 34.5775 -19.27875 35.155 -19.9375 35.75 C-22.57919193 38.63184574 -23.06064015 41.24256061 -24 45 C-24.875 47.375 -24.875 47.375 -26 49 C-26.598125 49.144375 -27.19625 49.28875 -27.8125 49.4375 C-31.11643647 50.28708366 -32.73673422 52.54812874 -35 55 C-33.28428842 50.03137859 -30.56072753 45.75878561 -27.8125 41.3125 C-27.31782227 40.5073999 -26.82314453 39.7022998 -26.31347656 38.87280273 C-23.23732843 33.90090057 -20.04502624 29.05223591 -16.625 24.30859375 C-14.13773911 20.77500917 -11.8649733 17.1106815 -9.578125 13.4453125 C-8 11 -8 11 -6.296875 8.8671875 C-4.7147699 6.96823468 -4.7147699 6.96823468 -5 4 C-2.5 1.8125 -2.5 1.8125 0 0 Z " fill="#DDD1BA" transform="translate(71,103)"/>
<path d="M0 0 C1.30839844 0.04060547 2.61679687 0.08121094 3.96484375 0.12304688 C7.18868674 0.22893953 10.40493742 0.37669051 13.625 0.5625 C12.965 2.2125 12.305 3.8625 11.625 5.5625 C10.965 5.5625 10.305 5.5625 9.625 5.5625 C9.625 4.9025 9.625 4.2425 9.625 3.5625 C2.695 3.5625 -4.235 3.5625 -11.375 3.5625 C-12.365 5.8725 -13.355 8.1825 -14.375 10.5625 C-15.375 11.5625 -16.375 12.5625 -17.375 13.5625 C-17.49875 14.3875 -17.6225 15.2125 -17.75 16.0625 C-18.375 18.5625 -18.375 18.5625 -20.9375 20.375 C-21.741875 20.766875 -22.54625 21.15875 -23.375 21.5625 C-23.375 20.9025 -23.375 20.2425 -23.375 19.5625 C-24.035 19.5625 -24.695 19.5625 -25.375 19.5625 C-25.705 21.5425 -26.035 23.5225 -26.375 25.5625 C-27.365 25.5625 -28.355 25.5625 -29.375 25.5625 C-28.0036593 21.82492437 -26.29084733 18.64907562 -24.125 15.3125 C-23.56296875 14.44109375 -23.0009375 13.5696875 -22.421875 12.671875 C-21.74640625 11.64578125 -21.0709375 10.6196875 -20.375 9.5625 C-20.0229248 8.78849854 -19.67084961 8.01449707 -19.30810547 7.21704102 C-14.90454026 -1.38422824 -8.89671914 -0.52202414 0 0 Z " fill="#89725C" transform="translate(291.375,94.4375)"/>
<path d="M0 0 C1 2 1 2 0.43359375 3.91796875 C-1.7280076 8.84302909 -4.06307025 12.63393833 -7.828125 16.4921875 C-9.30682867 18.07651007 -9.30682867 18.07651007 -9 21 C-9 21.99 -9 22.98 -9 24 C-9.66 24 -10.32 24 -11 24 C-11 24.66 -11 25.32 -11 26 C-10.34 26.33 -9.68 26.66 -9 27 C-9.99 27.33 -10.98 27.66 -12 28 C-12.66 27.01 -13.32 26.02 -14 25 C-14.2475 25.928125 -14.495 26.85625 -14.75 27.8125 C-16.06974749 31.17785609 -16.90515949 32.25915221 -20 34 C-20.66 34 -21.32 34 -22 34 C-23.41377341 36.63904371 -24.37240135 39.07120629 -25 42 C-22.36 42 -19.72 42 -17 42 C-17 42.33 -17 42.66 -17 43 C-20.63 43 -24.26 43 -28 43 C-27.16826677 39.67306707 -26.53074919 37.93461533 -24.8125 35.12890625 C-24.36519531 34.39567139 -23.91789062 33.66243652 -23.45703125 32.90698242 C-22.97621094 32.13330322 -22.49539062 31.35962402 -22 30.5625 C-21.26330078 29.36620972 -21.26330078 29.36620972 -20.51171875 28.14575195 C-16.81658063 22.19426415 -12.93409572 16.4073221 -8.875 10.69921875 C-6.97523753 8.03661684 -6.97523753 8.03661684 -5.38671875 5.2578125 C-3.88544583 2.81348644 -2.38161377 1.56036764 0 0 Z " fill="#AB9F8C" transform="translate(33,161)"/>
<path d="M0 0 C9.9 0 19.8 0 30 0 C31.98 3.63 33.96 7.26 36 11 C31.97449681 9.6581656 31.11714364 7.5772427 29 4 C29 3.34 29 2.68 29 2 C26.35319096 2.11339204 23.70822482 2.24012873 21.0625 2.375 C19.93038086 2.42140625 19.93038086 2.42140625 18.77539062 2.46875 C16.84492605 2.5726315 14.92057919 2.77895614 13 3 C12.67 3.66 12.34 4.32 12 5 C11.34 4.67 10.68 4.34 10 4 C8.47224381 6.4264363 7.95111563 7.60892503 8.3125 10.5 C8.539375 11.325 8.76625 12.15 9 13 C9.2784375 14.1446875 9.2784375 14.1446875 9.5625 15.3125 C9.706875 15.869375 9.85125 16.42625 10 17 C7.41907882 14.57790473 5.37379496 11.9362131 3.3125 9.0625 C2.37857422 7.78052734 2.37857422 7.78052734 1.42578125 6.47265625 C0 4 0 4 0 0 Z " fill="#7C6D54" transform="translate(130,93)"/>
<path d="M0 0 C0.66 0 1.32 0 2 0 C0.69289187 3.57402512 -0.88412294 6.50997433 -3.0625 9.625 C-4.83987829 12.17156156 -6.01065939 14.03197816 -7 17 C-9.83339965 17.02724423 -12.66653117 17.04695589 -15.5 17.0625 C-16.29148437 17.07087891 -17.08296875 17.07925781 -17.8984375 17.08789062 C-23.02761717 17.10891185 -27.92336106 16.73937287 -33 16 C-32.8125 13.6875 -32.8125 13.6875 -32 11 C-29.4375 9.1875 -29.4375 9.1875 -27 8 C-27.33 9.65 -27.66 11.3 -28 13 C-25.03 13.33 -22.06 13.66 -19 14 C-19 13.67 -19 13.34 -19 13 C-17.95199219 12.96132812 -17.95199219 12.96132812 -16.8828125 12.921875 C-15.97273438 12.86515625 -15.06265625 12.8084375 -14.125 12.75 C-13.22007813 12.70359375 -12.31515625 12.6571875 -11.3828125 12.609375 C-8.85660654 12.24388346 -8.85660654 12.24388346 -7.703125 10.0859375 C-6.94888163 8.02049441 -6.94888163 8.02049441 -6.625 5.875 C-6 4 -6 4 -4.0625 2.875 C-3.0415625 2.441875 -3.0415625 2.441875 -2 2 C-1.34 1.34 -0.68 0.68 0 0 Z " fill="#BEB0A0" transform="translate(41,187)"/>
<path d="M0 0 C9.57 0 19.14 0 29 0 C28.05851469 4.70742654 27.18899078 6.65689622 24.62109375 10.51953125 C23.61079102 12.0519043 23.61079102 12.0519043 22.58007812 13.61523438 C21.87302734 14.67033203 21.16597656 15.72542969 20.4375 16.8125 C19.72658203 17.88693359 19.01566406 18.96136719 18.28320312 20.06835938 C16.52918752 22.71704066 14.76794691 25.36060589 13 28 C11.62495201 25.24990402 12.3705725 24.03055948 13.25 21.125 C13.50265625 20.26132813 13.7553125 19.39765625 14.015625 18.5078125 C15.02555356 15.93489926 16.32588938 14.176805 18 12 C18.144375 11.13375 18.28875 10.2675 18.4375 9.375 C19 7 19 7 21.0625 5.6875 C22.0215625 5.3471875 22.0215625 5.3471875 23 5 C23 5.66 23 6.32 23 7 C23.66 7 24.32 7 25 7 C25.66 5.35 26.32 3.7 27 2 C18.09 2 9.18 2 0 2 C0 1.34 0 0.68 0 0 Z " fill="#795E49" transform="translate(278,93)"/>
<path d="M0 0 C1.08595765 3.30073971 1.1069007 3.77729021 -0.5 7.125 C-0.995 8.07375 -1.49 9.0225 -2 10 C-1.67 10.66 -1.34 11.32 -1 12 C0.19496094 11.76603516 0.19496094 11.76603516 1.4140625 11.52734375 C3.00347656 11.23537109 3.00347656 11.23537109 4.625 10.9375 C5.66914062 10.74027344 6.71328125 10.54304687 7.7890625 10.33984375 C11.10477629 9.98891054 13.75401145 10.3030385 17 11 C17 11.66 17 12.32 17 13 C12.05 13 7.1 13 2 13 C2 13.66 2 14.32 2 15 C-2.62 15 -7.24 15 -12 15 C-10.83024734 10.32098935 -9.47021791 9.23887005 -6 6 C-4.8919386 4.89974185 -3.7877489 3.79557058 -2.6875 2.6875 C-1.800625 1.800625 -0.91375 0.91375 0 0 Z " fill="#C7BBA6" transform="translate(68,189)"/>
<path d="M0 0 C2.83832465 2.6792806 4.97133532 5.296722 7 8.625 C9.30924004 12.3490917 11.66977328 16.01980562 14.12109375 19.65234375 C14.66701172 20.46171387 15.21292969 21.27108398 15.77539062 22.10498047 C16.87619741 23.73258346 17.98032425 25.35794631 19.08789062 26.98095703 C19.59384766 27.73103027 20.09980469 28.48110352 20.62109375 29.25390625 C21.0792749 29.92752197 21.53745605 30.6011377 22.00952148 31.29516602 C23 33 23 33 23 35 C24.485 34.505 24.485 34.505 26 34 C25.67 34.99 25.34 35.98 25 37 C21.23924335 35.74641445 20.52350869 34.29326113 18.3125 31.0625 C17.68988281 30.16660156 17.06726563 29.27070313 16.42578125 28.34765625 C15 26 15 26 15 24 C14.01 24.33 13.02 24.66 12 25 C8 18.25 8 18.25 8 16 C7.01 16 6.02 16 5 16 C0.59225513 5.62642369 0.59225513 5.62642369 0 0 Z " fill="#6A573D" transform="translate(136,150)"/>
<path d="M0 0 C0.33 0 0.66 0 1 0 C1.12375 1.0725 1.2475 2.145 1.375 3.25 C1.89643936 6.37863615 2.40088254 8.33480424 4 11 C4.66 11 5.32 11 6 11 C6.33 11.99 6.66 12.98 7 14 C6.67 14.66 6.34 15.32 6 16 C6.804375 16.12375 7.60875 16.2475 8.4375 16.375 C9.7059375 16.684375 9.7059375 16.684375 11 17 C11.33 17.66 11.66 18.32 12 19 C12.66 19 13.32 19 14 19 C14.16276042 20.953125 14.32552083 22.90625 14.48828125 24.859375 C15.16228765 27.67888271 15.84865196 29.02499196 18 31 C21.42764055 31.48517403 21.42764055 31.48517403 25.1875 31.25 C27.09595703 31.19585937 27.09595703 31.19585937 29.04296875 31.140625 C30.50669922 31.07101563 30.50669922 31.07101563 32 31 C31.67 31.66 31.34 32.32 31 33 C25.96914452 33.90555399 20.91929735 34.69340494 16 33 C11.89576018 29.64198561 9.56353717 24.64341168 7.11865234 20.03173828 C5.41064 16.9295823 3.39827038 14.0935236 1.375 11.1875 C-2 6.24505929 -2 6.24505929 -2 4 C-1.34 4 -0.68 4 0 4 C0 2.68 0 1.36 0 0 Z " fill="#DFD1B7" transform="translate(185,169)"/>
<path d="M0 0 C0.72832031 0.13535156 1.45664063 0.27070313 2.20703125 0.41015625 C2.57054688 1.09980469 2.9340625 1.78945312 3.30859375 2.5 C6.29961245 8.09090418 9.40981162 13.35122768 13.203125 18.4375 C14.20703125 20.41015625 14.20703125 20.41015625 13.99609375 22.5234375 C12.92545368 25.08343331 11.24577298 26.56871211 9.20703125 28.41015625 C9.73296875 27.32734375 9.73296875 27.32734375 10.26953125 26.22265625 C11.39030046 22.86034861 11.24705742 21.7832141 10.20703125 18.41015625 C8.71848468 15.69587718 7.01329265 13.15337948 5.26953125 10.59765625 C4.81384766 9.90478516 4.35816406 9.21191406 3.88867188 8.49804688 C2.7199677 6.76124638 1.46945087 5.08007904 0.20703125 3.41015625 C-0.45296875 3.41015625 -1.11296875 3.41015625 -1.79296875 3.41015625 C-3.17871078 5.03746636 -3.17871078 5.03746636 -4.55078125 7.1796875 C-5.09065674 7.98172607 -5.63053223 8.78376465 -6.18676758 9.61010742 C-6.75806396 10.47224854 -7.32936035 11.33438965 -7.91796875 12.22265625 C-9.08989976 13.9656822 -10.26307376 15.70787308 -11.4375 17.44921875 C-12.00936035 18.2990332 -12.5812207 19.14884766 -13.17041016 20.02441406 C-16.26231737 24.57062492 -19.51182249 28.99894753 -22.79296875 33.41015625 C-22.79296875 29.28650237 -20.68738956 26.93087809 -18.41796875 23.66015625 C-17.49915677 22.32089061 -16.58121419 20.98102818 -15.6640625 19.640625 C-15.18952637 18.94888184 -14.71499023 18.25713867 -14.22607422 17.54443359 C-12.79781835 15.4173786 -11.43131047 13.26138648 -10.078125 11.0859375 C-9.42432861 10.05194824 -9.42432861 10.05194824 -8.75732422 8.99707031 C-7.91874423 7.6675282 -7.09305319 6.32975157 -6.28173828 4.98339844 C-3.41267382 0.50116189 -3.41267382 0.50116189 0 0 Z " fill="#6A5D4C" transform="translate(91.79296875,151.58984375)"/>
<path d="M0 0 C6.85771818 8.22926181 12.55963097 17.32214018 18.25 26.375 C19.46202617 28.30043398 20.67551169 30.22495028 21.890625 32.1484375 C22.41688477 32.98552246 22.94314453 33.82260742 23.48535156 34.68505859 C24.96873193 37.0209382 24.96873193 37.0209382 26.69433594 39.17822266 C28 41 28 41 28 43 C26.515 43.495 26.515 43.495 25 44 C22.37798835 42.68899417 22.13499285 41.69560803 21 39 C20.67 37.783125 20.34 36.56625 20 35.3125 C19.67 34.219375 19.34 33.12625 19 32 C18.34 31.67 17.68 31.34 17 31 C16.30793021 29.36111081 15.61946212 27.72059821 14.95019531 26.07226562 C13.18101394 22.21388651 10.73278221 18.76825314 8.375 15.25 C7.37980568 13.75720851 6.38748787 12.26249424 5.3984375 10.765625 C4.96192871 10.11368164 4.52541992 9.46173828 4.07568359 8.79003906 C3 7 3 7 2 4 C1.34 4 0.68 4 0 4 C0 2.68 0 1.36 0 0 Z " fill="#6A5C43" transform="translate(108,107)"/>
<path d="M0 0 C0.33 0.99 0.66 1.98 1 3 C1.66 3 2.32 3 3 3 C3 3.66 3 4.32 3 5 C4.32 5.33 5.64 5.66 7 6 C7.33 5.34 7.66 4.68 8 4 C10.18994248 7.28491373 10.35277339 8.83095639 10.625 12.6875 C10.69976562 13.68136719 10.77453125 14.67523438 10.8515625 15.69921875 C10.90054688 16.45847656 10.94953125 17.21773437 11 18 C13.97 18 16.94 18 20 18 C19.34 19.98 18.68 21.96 18 24 C14.05930479 23.11993009 12.3483283 22.45037023 9.83984375 19.20703125 C8.89818359 17.52673828 8.89818359 17.52673828 7.9375 15.8125 C7.26101345 14.63692608 6.58263693 13.46243766 5.90234375 12.2890625 C4.96068359 10.66097656 4.96068359 10.66097656 4 9 C2.39490563 6.60976308 0.7191814 4.31015001 -1 2 C-0.67 1.34 -0.34 0.68 0 0 Z " fill="#B3A27C" transform="translate(105,143)"/>
<path d="M0 0 C0.66 0 1.32 0 2 0 C0.68473303 3.63142003 -0.91204887 6.51122477 -3.1875 9.625 C-6.26731669 13.93168411 -9.15095503 18.31798417 -11.97265625 22.796875 C-14.51836244 26.81899269 -17.10102968 30.81651491 -19.6875 34.8125 C-20.15124023 35.52994385 -20.61498047 36.2473877 -21.09277344 36.98657227 C-23.69838939 41.01177056 -26.33014942 45.01710815 -29 49 C-29.66 48.67 -30.32 48.34 -31 48 C-17.09510721 26.00953561 -17.09510721 26.00953561 -10.35595703 16.02490234 C-7.23097152 11.38786933 -4.27112357 6.66168724 -1.375 1.87890625 C-0.92125 1.25886719 -0.4675 0.63882813 0 0 Z " fill="#7D7668" transform="translate(65,108)"/>
<path d="M0 0 C4.26080907 1.42026969 5.44213611 4.56241078 7.625 8.25 C10.77947526 13.44587799 13.9937629 18.53387058 17.5 23.5 C20.99378819 28.49023152 24.35589152 33.54704532 27.625 38.6875 C28.07552734 39.38359375 28.52605469 40.0796875 28.99023438 40.796875 C30.05730908 42.49273149 31.03758305 44.24263513 32 46 C31.67 46.66 31.34 47.32 31 48 C19.28125 30.421875 19.28125 30.421875 17.14453125 27.21606445 C15.70532684 25.05774937 14.2652106 22.90004204 12.82421875 20.74291992 C6.13398066 10.72385395 6.13398066 10.72385395 3 5.8125 C2.13375 4.46091797 2.13375 4.46091797 1.25 3.08203125 C0 1 0 1 0 0 Z " fill="#675B44" transform="translate(88,122)"/>
<path d="M0 0 C0 1.65 0 3.3 0 5 C0.66 5.33 1.32 5.66 2 6 C2.625 9.0625 2.625 9.0625 3 12 C6.39774961 13.1325832 8.92334202 13.06330368 12.5 13 C18.73202362 12.94817444 24.81128768 13.29271859 31 14 C31 14.33 31 14.66 31 15 C26.68892694 15.33391437 22.37827092 15.62090931 18.06152344 15.86669922 C16.14508523 15.9906186 14.23223853 16.1670178 12.3203125 16.34765625 C4.20077543 16.86333124 4.20077543 16.86333124 0.859375 14.4609375 C-1.85144243 11.18008836 -3.31360236 8.28906361 -3.375 4 C-3.25125 3.01 -3.1275 2.02 -3 1 C-1 0 -1 0 0 0 Z " fill="#A28757" transform="translate(139,186)"/>
<path d="M0 0 C0.99 0 1.98 0 3 0 C4.61328125 2.08984375 4.61328125 2.08984375 6.3125 4.9375 C9.0620402 9.4654662 11.91779722 13.86825552 14.93359375 18.22265625 C16 20 16 20 16 22 C15.34 22 14.68 22 14 22 C12.85498047 20.53125 12.85498047 20.53125 11.6171875 18.5 C11.17246094 17.778125 10.72773438 17.05625 10.26953125 16.3125 C9.80933594 15.549375 9.34914062 14.78625 8.875 14 C8.17310547 12.8553125 8.17310547 12.8553125 7.45703125 11.6875 C6.2981857 9.79550727 5.14623253 7.89965148 4 6 C1.58924416 8.9504773 -0.67580008 11.88851117 -2.6875 15.125 C-3.10386719 15.78757813 -3.52023438 16.45015625 -3.94921875 17.1328125 C-5.14555918 19.12054204 -5.14555918 19.12054204 -6 22 C-6.66 22 -7.32 22 -8 22 C-7.03433493 18.62017227 -6.08034595 16.11047568 -4 13.25 C-1.38225315 8.99616136 -0.73413708 4.88780738 0 0 Z " fill="#72634E" transform="translate(186,182)"/>
<path d="M0 0 C9.9 0 19.8 0 30 0 C29.08541782 3.65832872 27.99523834 5.87701826 26 9 C25.67 8.34 25.34 7.68 25 7 C25.9375 4.875 25.9375 4.875 27 3 C22.70834738 2.97108051 18.41671964 2.95322882 14.125 2.9375 C12.90167969 2.92912109 11.67835938 2.92074219 10.41796875 2.91210938 C9.25136719 2.90888672 8.08476562 2.90566406 6.8828125 2.90234375 C5.80402832 2.89710693 4.72524414 2.89187012 3.61376953 2.88647461 C1.01767814 2.82116894 1.01767814 2.82116894 -1 4 C-0.67 2.68 -0.34 1.36 0 0 Z " fill="#665A4F" transform="translate(218,93)"/>
<path d="M0 0 C1.60031344 3.20062687 0.03173691 5.72271806 -1 9 C-1.66 9 -2.32 9 -3 9 C-3 10.65 -3 12.3 -3 14 C-3.66 13.67 -4.32 13.34 -5 13 C-5.103125 13.639375 -5.20625 14.27875 -5.3125 14.9375 C-5.539375 15.618125 -5.76625 16.29875 -6 17 C-6.99 17.33 -7.98 17.66 -9 18 C-10.43463672 20.12592337 -11.73539871 22.21493946 -13 24.4375 C-16.60867673 30.73911782 -16.60867673 30.73911782 -20 33 C-18.5143761 28.99624358 -16.63136615 25.38578153 -14.5 21.6875 C-13.8915625 20.61886719 -13.283125 19.55023438 -12.65625 18.44921875 C-12.1096875 17.64097656 -11.563125 16.83273438 -11 16 C-10.34 16 -9.68 16 -9 16 C-8.74476563 15.29488281 -8.48953125 14.58976563 -8.2265625 13.86328125 C-6.88449478 10.7303652 -5.23270133 8.04285575 -3.375 5.1875 C-2.42753906 3.72376953 -2.42753906 3.72376953 -1.4609375 2.23046875 C-0.73777344 1.12638672 -0.73777344 1.12638672 0 0 Z " fill="#7F6D5D" transform="translate(261,120)"/>
<path d="M0 0 C0.99 0.66 1.98 1.32 3 2 C2.43064655 5.90828837 1.29610602 8.5052037 -0.87109375 11.79296875 C-1.44537109 12.67017578 -2.01964844 13.54738281 -2.61132812 14.45117188 C-3.5152832 15.8056543 -3.5152832 15.8056543 -4.4375 17.1875 C-5.03626953 18.10208984 -5.63503906 19.01667969 -6.25195312 19.95898438 C-10.68403341 26.68403341 -10.68403341 26.68403341 -13 29 C-12.4448045 24.72807908 -10.95228987 22.13257854 -8.5 18.625 C-5.59761193 14.23877345 -4.11650895 11.24290278 -4 6 C-3.34 6 -2.68 6 -2 6 C-2 4.35 -2 2.7 -2 1 C-1.34 0.67 -0.68 0.34 0 0 Z " fill="#887966" transform="translate(251,175)"/>
<path d="M0 0 C0.66 0 1.32 0 2 0 C3 3 3 3 1.75 6.625 C0 10 0 10 -3 11 C-2.66717696 16.43610969 -1.48137603 19.25958856 2.0390625 23.421875 C2.35617188 23.94265625 2.67328125 24.4634375 3 25 C2.67 25.99 2.34 26.98 2 28 C0.46336516 25.75944862 -1.05400704 23.50937727 -2.5625 21.25 C-3.00013672 20.61578125 -3.43777344 19.9815625 -3.88867188 19.328125 C-7.07454085 14.51169316 -7.07454085 14.51169316 -6.70068359 11.9453125 C-5.76661195 9.35204322 -4.47635864 7.1144971 -3.0625 4.75 C-2.53785156 3.85796875 -2.01320312 2.9659375 -1.47265625 2.046875 C-0.98667969 1.37140625 -0.50070313 0.6959375 0 0 Z " fill="#A69D91" transform="translate(204,115)"/>
<path d="M0 0 C9.57 0 19.14 0 29 0 C27.9957244 5.02137798 27.60239038 5.86243419 24 9 C25.875 4.25 25.875 4.25 27 2 C18.09 2 9.18 2 0 2 C0 1.34 0 0.68 0 0 Z " fill="#49392E" transform="translate(278,93)"/>
<path d="M0 0 C1 2 1 2 0.43359375 3.91796875 C-1.98234212 9.42251283 -4.82720316 13.67420061 -9 18 C-9.99 17.67 -10.98 17.34 -12 17 C-10.70237168 13.50258272 -9.18620762 10.48283118 -7.125 7.375 C-6.63257813 6.61960938 -6.14015625 5.86421875 -5.6328125 5.0859375 C-3.95046064 2.93671288 -2.24843934 1.52816007 0 0 Z " fill="#AEA290" transform="translate(33,161)"/>
<path d="M0 0 C1.05994031 3.25001565 1.10901958 3.76774089 -0.4375 7.0625 C-1.2109375 8.5165625 -1.2109375 8.5165625 -2 10 C-2 10.99 -2 11.98 -2 13 C-4.64 13 -7.28 13 -10 13 C-7.25180579 7.71501113 -4.35924798 4.06202653 0 0 Z " fill="#E0CFB6" transform="translate(68,189)"/>
<path d="M0 0 C0.66 0.66 1.32 1.32 2 2 C2.33 1.34 2.66 0.68 3 0 C3.66 0 4.32 0 5 0 C1.49701723 9.51786049 -5.14856048 17.80087046 -11 26 C-11 22.39318242 -10.05218777 21.18893358 -8.125 18.1875 C-5.84267468 14.49943332 -4.20874963 11.18413334 -3 7 C-2.04547287 4.64486021 -1.02361834 2.32640533 0 0 Z " fill="#756554" transform="translate(265,153)"/>
<path d="M0 0 C2.42288953 2.27737064 4.31323432 4.69320482 6.1875 7.4375 C6.71730469 8.19933594 7.24710937 8.96117187 7.79296875 9.74609375 C9 12 9 12 9 16 C10.32 16.66 11.64 17.32 13 18 C13 19.65 13 21.3 13 23 C11.35 23.33 9.7 23.66 8 24 C8.57584432 21.61435923 9.22227595 19.33317216 10 17 C9.34 17 8.68 17 8 17 C5 11.25 5 11.25 5 9 C3.68 8.67 2.36 8.34 1 8 C0.67 5.36 0.34 2.72 0 0 Z " fill="#AD9560" transform="translate(116,122)"/>
<path d="M0 0 C0.33 0.99 0.66 1.98 1 3 C0.34 3.66 -0.32 4.32 -1 5 C-1.12632813 5.6290625 -1.25265625 6.258125 -1.3828125 6.90625 C-2.21091075 9.71549469 -3.61410636 10.67803443 -5.875 12.5 C-8.70493965 14.79736799 -10.91095483 17.00438806 -13 20 C-13.66 19.67 -14.32 19.34 -15 19 C-13.44347006 16.7664551 -11.88009379 14.53826082 -10.3125 12.3125 C-9.87744141 11.68666016 -9.44238281 11.06082031 -8.99414062 10.41601562 C-6.27086073 6.56307888 -3.4349626 3.23691071 0 0 Z " fill="#9E9282" transform="translate(72,180)"/>
<path d="M0 0 C3.77734828 3.1028218 5.22666388 6.48474294 7.05078125 10.8828125 C8.08627646 13.19243555 9.46266835 15.00146885 11 17 C11 17.99 11 18.98 11 20 C10.34 20 9.68 20 9 20 C8.67 18.68 8.34 17.36 8 16 C7.01 16 6.02 16 5 16 C0.59225513 5.62642369 0.59225513 5.62642369 0 0 Z " fill="#82714C" transform="translate(136,150)"/>
<path d="M0 0 C0.66 0.33 1.32 0.66 2 1 C1.38722388 3.96175123 0.74627478 5.38058783 -1 8 C-1.33 8.99 -1.66 9.98 -2 11 C-2.66 11 -3.32 11 -4 11 C-5.37310707 12.29233607 -6.71034824 13.62437146 -8 15 C-8 10.58941116 -7.51335819 10.24642099 -5 7 C-5 6.01 -5 5.02 -5 4 C-2.5 1.8125 -2.5 1.8125 0 0 Z " fill="#D8CCAF" transform="translate(71,103)"/>
<path d="M0 0 C2.90625 -0.328125 2.90625 -0.328125 6.5 -0.25 C7.75039062 -0.22421875 9.00078125 -0.1984375 10.2890625 -0.171875 C14.88575601 0.04102449 19.4365474 0.41116741 24 1 C24 1.33 24 1.66 24 2 C18.51177128 2.58429811 13.14736251 3.05796984 7.625 2.875 C3.60832614 2.81104023 1.22545997 3.41963202 -2 6 C-2 3 -2 3 0 0 Z " fill="#CCBB9A" transform="translate(75,95)"/>
<path d="M0 0 C0.66 0 1.32 0 2 0 C0.41791942 4.62250359 -2.07296299 8.3195571 -4.8125 12.3125 C-5.71309429 13.64265087 -6.61284193 14.9733754 -7.51171875 16.3046875 C-8.15633057 17.25746582 -8.15633057 17.25746582 -8.81396484 18.22949219 C-10.96122418 21.43491103 -12.98572206 24.7100127 -15 28 C-16 25 -16 25 -15.07543945 23.01049805 C-14.59292725 22.26840088 -14.11041504 21.52630371 -13.61328125 20.76171875 C-13.08669922 19.94123047 -12.56011719 19.12074219 -12.01757812 18.27539062 C-11.45490234 17.42138672 -10.89222656 16.56738281 -10.3125 15.6875 C-9.76916016 14.84509766 -9.22582031 14.00269531 -8.66601562 13.13476562 C-7.60549912 11.49461979 -6.53815235 9.85886629 -5.46337891 8.22802734 C-4.55608627 6.84665387 -3.66018666 5.45763447 -2.78271484 4.05712891 C-1.90571234 2.67142426 -0.96054867 1.32915651 0 0 Z " fill="#756A57" transform="translate(86,120)"/>
<path d="M0 0 C0.66 0 1.32 0 2 0 C0.67997942 3.57294032 -0.89521388 6.63953492 -3 9.8125 C-3.515625 10.60269531 -4.03125 11.39289063 -4.5625 12.20703125 C-5.036875 12.79871094 -5.51125 13.39039063 -6 14 C-6.66 14 -7.32 14 -8 14 C-7.92911104 10.92599678 -7.74483829 7.9899937 -7 5 C-4.5625 3.0625 -4.5625 3.0625 -2 2 C-1.34 1.34 -0.68 0.68 0 0 Z " fill="#D7C7B2" transform="translate(41,187)"/>
<path d="M0 0 C1.04449911 3.13349732 0.93423645 3.98968256 0 7 C-0.99 7 -1.98 7 -3 7 C-3.25910156 7.70769531 -3.51820313 8.41539062 -3.78515625 9.14453125 C-5.08862562 12.20831296 -6.65458618 14.87701434 -8.4375 17.6875 C-9.33275391 19.11642578 -9.33275391 19.11642578 -10.24609375 20.57421875 C-12 23 -12 23 -15 25 C-13.7069711 21.53714401 -12.1982618 18.50700196 -10.21484375 15.390625 C-9.68439453 14.55402344 -9.15394531 13.71742188 -8.60742188 12.85546875 C-8.05634766 11.99566406 -7.50527344 11.13585937 -6.9375 10.25 C-6.38255859 9.37472656 -5.82761719 8.49945313 -5.25585938 7.59765625 C-1.15646655 1.15646655 -1.15646655 1.15646655 0 0 Z " fill="#796B5D" transform="translate(240,153)"/>
<path d="M0 0 C0.66 0 1.32 0 2 0 C4 3 4 3 4 6 C1.5 7.6875 1.5 7.6875 -1 9 C-1 8.34 -1 7.68 -1 7 C-1.66 7 -2.32 7 -3 7 C-3.33 8.98 -3.66 10.96 -4 13 C-4.99 13 -5.98 13 -7 13 C-5.39516194 8.33138019 -3.02509806 3.90741833 0 0 Z " fill="#A38970" transform="translate(269,107)"/>
<path d="M0 0 C1.32 0 2.64 0 4 0 C3.33607808 3.48154178 1.94219623 6.09633962 0.125 9.125 C-0.38804688 9.99382812 -0.90109375 10.86265625 -1.4296875 11.7578125 C-3 14 -3 14 -6 16 C-4.94124926 12.59687262 -3.99097846 9.98646769 -2 7 C-1.29187186 4.67891331 -0.61975848 2.34622853 0 0 Z " fill="#E0D4BD" transform="translate(56,159)"/>
<path d="M0 0 C0.66 0 1.32 0 2 0 C2.33 1.98 2.66 3.96 3 6 C2.21625 6.598125 1.4325 7.19625 0.625 7.8125 C-2.14574323 9.91085249 -2.14574323 9.91085249 -4 13 C-4.66 13 -5.32 13 -6 13 C-5.125 8.25 -5.125 8.25 -4 6 C-3.01 6 -2.02 6 -1 6 C-0.67 4.02 -0.34 2.04 0 0 Z " fill="#A99277" transform="translate(266,114)"/>
<path d="M0 0 C4.17492908 1.39164303 5.13773944 4.27547888 7 8 C9.1588785 12.52336449 9.1588785 12.52336449 8 16 C6.84072025 14.46841892 5.69812453 12.92420207 4.5625 11.375 C3.60537109 10.08722656 3.60537109 10.08722656 2.62890625 8.7734375 C0.86822073 5.77562762 0.35742365 3.43328069 0 0 Z " fill="#887651" transform="translate(119,166)"/>
<path d="M0 0 C0.99 0.33 1.98 0.66 3 1 C2.40361667 2.27450447 1.79752584 3.54446877 1.1875 4.8125 C0.85105469 5.52019531 0.51460938 6.22789063 0.16796875 6.95703125 C-1.00718416 9.01256627 -2.3389625 10.3389625 -4 12 C-4 12.66 -4 13.32 -4 14 C-4.99 13.67 -5.98 13.34 -7 13 C-5.35821735 8.22390502 -2.73453298 4.20617096 0 0 Z " fill="#A48B71" transform="translate(278,96)"/>
<path d="M0 0 C0.33 0.99 0.66 1.98 1 3 C3.97 3 6.94 3 10 3 C9.34 4.98 8.68 6.96 8 9 C5.1875 8.375 5.1875 8.375 2 7 C0.125 3.875 0.125 3.875 -1 1 C-0.67 0.67 -0.34 0.34 0 0 Z " fill="#B89663" transform="translate(115,158)"/>
<path d="M0 0 C3.50910665 1.16970222 3.78174698 1.85048928 5.5625 4.9375 C6.94197027 7.30537576 8.04971701 9.04971701 10 11 C9.01 11.495 9.01 11.495 8 12 C5.9754262 10.06745228 4.57894208 8.36841312 3 6 C0.43717258 5.27034634 0.43717258 5.27034634 -2 5 C-2 3.68 -2 2.36 -2 1 C-1.34 0.67 -0.68 0.34 0 0 Z " fill="#CCC1A5" transform="translate(211,178)"/>
<path d="M0 0 C2.96175123 0.61277612 4.38058783 1.25372522 7 3 C7.70052461 5.663063 7.77744818 8.24035737 8 11 C7.01 11 6.02 11 5 11 C5 9.68 5 8.36 5 7 C4.34 6.67 3.68 6.34 3 6 C1.95191959 4.02477154 0.9479589 2.02518491 0 0 Z " fill="#C9B780" transform="translate(147,115)"/>
<path d="M0 0 C3.16115776 1.36983503 3.9927092 1.9890638 6 5 C9.35503476 5.36558117 9.35503476 5.36558117 13.125 5.1875 C14.40632812 5.16042969 15.68765625 5.13335937 17.0078125 5.10546875 C17.99523437 5.07066406 18.98265625 5.03585938 20 5 C19.67 5.66 19.34 6.32 19 7 C14.05 7 9.1 7 4 7 C2.02 3.535 2.02 3.535 0 0 Z " fill="#D4C6B0" transform="translate(197,195)"/>
<path d="M0 0 C0.66 0 1.32 0 2 0 C4.39731331 3.19641774 6.38479725 6.00118212 7 10 C5.35 10.33 3.7 10.66 2 11 C1.24758891 7.34543185 0.59950296 3.68266103 0 0 Z " fill="#E0D1BD" transform="translate(184,136)"/>
<path d="M0 0 C0.99 0.66 1.98 1.32 3 2 C1.95125002 4.62187494 1.35068687 5.79371361 -1.125 7.25 C-1.74375 7.4975 -2.3625 7.745 -3 8 C-2.45276317 4.62537285 -1.9451 2.91765 0 0 Z M-6 8 C-5.01 8 -4.02 8 -3 8 C-4.04874998 10.62187494 -4.64931313 11.79371361 -7.125 13.25 C-7.74375 13.4975 -8.3625 13.745 -9 14 C-7.125 9.125 -7.125 9.125 -6 8 Z " fill="#B49E80" transform="translate(258,129)"/>
<path d="M0 0 C1.26175847 3.78527542 0.72938114 4.46262949 -1 8 C-2.60892566 10.70500627 -4.28459868 13.36142469 -6 16 C-7.65061775 12.69876451 -6.026738 9.81135506 -4.96875 6.421875 C-3.8297539 3.57438476 -2.4419892 1.85254353 0 0 Z " fill="#806954" transform="translate(297,105)"/>
<path d="M0 0 C4.33034194 3.84919283 6.6560756 7.72289646 9 13 C7.02 12.34 5.04 11.68 3 11 C2.87625 10.195625 2.7525 9.39125 2.625 8.5625 C2.315625 7.2940625 2.315625 7.2940625 2 6 C1.34 5.67 0.68 5.34 0 5 C0 3.35 0 1.7 0 0 Z " fill="#D4C4AA" transform="translate(170,114)"/>
<path d="M0 0 C0 3.33701712 -0.77982378 5.59321641 -2.4453125 8.48046875 C-5.14539665 11.11949572 -8.32951986 10.90690601 -11.953125 11.02734375 C-12.62859375 11.01832031 -13.3040625 11.00929687 -14 11 C-14 10.67 -14 10.34 -14 10 C-12.906875 9.773125 -11.81375 9.54625 -10.6875 9.3125 C-6.42458921 7.79519277 -5.98541769 6.87629169 -4 3 C-1.8125 1.1875 -1.8125 1.1875 0 0 Z " fill="#91764F" transform="translate(184,190)"/>
<path d="M0 0 C0.33 0.99 0.66 1.98 1 3 C-0.65234375 5.91796875 -0.65234375 5.91796875 -2.9375 9.1875 C-3.32357422 9.74630859 -3.70964844 10.30511719 -4.10742188 10.88085938 C-5.06242753 12.26031198 -6.03004093 13.63102056 -7 15 C-7.66 14.67 -8.32 14.34 -9 14 C-7.62219103 9.98139049 -5.73478207 7.23201518 -3 4 C-1.99426222 2.67098936 -0.99204592 1.33926199 0 0 Z " fill="#D1C2AA" transform="translate(79,128)"/>
<path d="M0 0 C0.66 0 1.32 0 2 0 C0.66666667 3.33333333 -0.66666667 6.66666667 -2 10 C0.64 10 3.28 10 6 10 C6 10.33 6 10.66 6 11 C2.37 11 -1.26 11 -5 11 C-3.90309312 6.61237247 -2.29817473 3.85500277 0 0 Z " fill="#897E72" transform="translate(10,193)"/>
<path d="M0 0 C0.66 0 1.32 0 2 0 C1.125 5.75 1.125 5.75 0 8 C-0.66 8 -1.32 8 -2 8 C-2 8.66 -2 9.32 -2 10 C-2.99 10 -3.98 10 -5 10 C-3.66749209 6.4124787 -2.169283 3.1635377 0 0 Z " fill="#715F40" transform="translate(174,163)"/>
<path d="M0 0 C0 1.65 0 3.3 0 5 C-0.99 5 -1.98 5 -3 5 C-3.4021875 6.1446875 -3.4021875 6.1446875 -3.8125 7.3125 C-4.94424112 9.87380884 -5.91223401 11.19692938 -8 13 C-7.3920502 8.86594138 -6.09037553 5.61795765 -4 2 C-1 0 -1 0 0 0 Z " fill="#D3C7B1" transform="translate(70,144)"/>
<path d="M0 0 C0.33 0.66 0.66 1.32 1 2 C0.29296875 4.0234375 0.29296875 4.0234375 -0.8125 6.375 C-1.16957031 7.14585937 -1.52664062 7.91671875 -1.89453125 8.7109375 C-2.91155818 10.81686605 -3.94651587 12.91209933 -5 15 C-5.66 14.67 -6.32 14.34 -7 14 C-6.44010697 10.00987629 -5.24330232 7.4744948 -2.9375 4.1875 C-2.38964844 3.39730469 -1.84179688 2.60710937 -1.27734375 1.79296875 C-0.64505859 0.90544922 -0.64505859 0.90544922 0 0 Z " fill="#B6A38A" transform="translate(248,143)"/>
<path d="M0 0 C2.53833449 1.26916725 2.89400901 2.41624809 4.125 4.9375 C4.47820312 5.64777344 4.83140625 6.35804688 5.1953125 7.08984375 C6 9 6 9 6 11 C2.18712958 9.55373881 0.67292823 7.69805188 -1 4 C-0.6875 1.6875 -0.6875 1.6875 0 0 Z " fill="#DBCAB5" transform="translate(204,131)"/>
<path d="M0 0 C0.33 0.66 0.66 1.32 1 2 C0.67 2.99 0.34 3.98 0 5 C2.31 5.33 4.62 5.66 7 6 C7 6.33 7 6.66 7 7 C3.7 7 0.4 7 -3 7 C-3.33 6.34 -3.66 5.68 -4 5 C-3 2 -3 2 0 0 Z " fill="#CBB8A0" transform="translate(13,195)"/>
<path d="M0 0 C0.33 0.99 0.66 1.98 1 3 C-1.37705019 7.29697535 -4.03381225 10.13553107 -8 13 C-7.01 10.03 -6.02 7.06 -5 4 C-4.01 4 -3.02 4 -2 4 C-2 3.34 -2 2.68 -2 2 C-1.34 2 -0.68 2 0 2 C0 1.34 0 0.68 0 0 Z " fill="#D6C4A7" transform="translate(78,174)"/>
<path d="M0 0 C0.33 0 0.66 0 1 0 C1.12375 1.0725 1.2475 2.145 1.375 3.25 C1.89643936 6.37863615 2.40088254 8.33480424 4 11 C4.66 11 5.32 11 6 11 C6 11.66 6 12.32 6 13 C4.25 12.875 4.25 12.875 2 12 C-2 6.77777778 -2 6.77777778 -2 4 C-1.34 4 -0.68 4 0 4 C0 2.68 0 1.36 0 0 Z " fill="#EAD6AC" transform="translate(185,169)"/>
<path d="M0 0 C0.66 1.32 1.32 2.64 2 4 C-0.38957269 7.24299151 -2.2047869 9.50902342 -6 11 C-4.54955729 6.89041233 -2.48889248 3.56741255 0 0 Z " fill="#BAAA92" transform="translate(237,160)"/>
<path d="M0 0 C0.66 0 1.32 0 2 0 C2.3125 2.25 2.3125 2.25 2 5 C-0.5 7.3125 -0.5 7.3125 -3 9 C-3 4.73350364 -2.43160605 3.36683915 0 0 Z " fill="#DCD1BC" transform="translate(61,117)"/>
<path d="M0 0 C0.99 0.33 1.98 0.66 3 1 C3 3.31 3 5.62 3 8 C0 7 0 7 -2 4 C-2 3.01 -2 2.02 -2 1 C-1.34 0.67 -0.68 0.34 0 0 Z " fill="#DAC9AB" transform="translate(174,154)"/>
<path d="M0 0 C1.9375 0.125 1.9375 0.125 4 1 C5.25 3.5625 5.25 3.5625 6 6 C5.01 6.33 4.02 6.66 3 7 C0.2160817 5.60804085 0.02101003 3.84424221 -1 1 C-0.67 0.67 -0.34 0.34 0 0 Z " fill="#887855" transform="translate(130,144)"/>
<path d="M0 0 C2.9244745 2.63202705 5.02154932 5.60837026 7 9 C6.67 9.99 6.34 10.98 6 12 C5.67 11.01 5.34 10.02 5 9 C2.98491642 8.26676204 2.98491642 8.26676204 1 8 C0.67 5.36 0.34 2.72 0 0 Z " fill="#B09B72" transform="translate(116,122)"/>
<path d="M0 0 C0.99 0.99 1.98 1.98 3 3 C-0.08809695 4.76462683 -1.23312136 5 -5 5 C-5.33 5.99 -5.66 6.98 -6 8 C-6.66 7.67 -7.32 7.34 -8 7 C-5.78972846 3.62642766 -3.53600465 1.91135386 0 0 Z " fill="#B7AC91" transform="translate(74,99)"/>
<path d="M0 0 C1.5 1.1875 1.5 1.1875 3 3 C3.1875 5.6875 3.1875 5.6875 3 8 C-0.39914975 6.86695008 -1.05254451 5.87481525 -3 3 C-2.67 2.34 -2.34 1.68 -2 1 C-1.34 1.33 -0.68 1.66 0 2 C0 1.34 0 0.68 0 0 Z " fill="#B8A36E" transform="translate(112,147)"/>
<path d="M0 0 C0.66 0.66 1.32 1.32 2 2 C1.01 2 0.02 2 -1 2 C-1.33 3.32 -1.66 4.64 -2 6 C-2.66 6 -3.32 6 -4 6 C-4 6.66 -4 7.32 -4 8 C-4.66 8 -5.32 8 -6 8 C-6 8.66 -6 9.32 -6 10 C-6.66 9.67 -7.32 9.34 -8 9 C-7.04663979 7.68388323 -6.08714226 6.37221039 -5.125 5.0625 C-4.59132813 4.33160156 -4.05765625 3.60070312 -3.5078125 2.84765625 C-2 1 -2 1 0 0 Z " fill="#CDBEA0" transform="translate(82,168)"/>
<path d="M0 0 C3.58102841 3.38208239 6.56773474 6.69676146 9 11 C8.67 11.99 8.34 12.98 8 14 C6.66101601 12.04532248 5.32870953 10.0866421 4 8.125 C3.2575 7.03445312 2.515 5.94390625 1.75 4.8203125 C0 2 0 2 0 0 Z " fill="#74695F" transform="translate(198,129)"/>
<path d="M0 0 C1.32 0.33 2.64 0.66 4 1 C4 1.66 4 2.32 4 3 C3.01 3 2.02 3 1 3 C-0.71711243 5.44496043 -0.71711243 5.44496043 -2 8 C-2.66 7.34 -3.32 6.68 -4 6 C-2.68 4.02 -1.36 2.04 0 0 Z " fill="#D2C4AE" transform="translate(213,105)"/>
<path d="M0 0 C0.33 1.32 0.66 2.64 1 4 C0.01 4.33 -0.98 4.66 -2 5 C-2.33 6.98 -2.66 8.96 -3 11 C-3.99 11 -4.98 11 -6 11 C-4.54955729 6.89041233 -2.48889248 3.56741255 0 0 Z " fill="#605133" transform="translate(168,173)"/>
<path d="M0 0 C0.66 0.33 1.32 0.66 2 1 C1.02526874 2.66926454 0.04510211 4.33535642 -0.9375 6 C-1.75541016 7.3921875 -1.75541016 7.3921875 -2.58984375 8.8125 C-3.05519531 9.534375 -3.52054688 10.25625 -4 11 C-4.33 11 -4.66 11 -5 11 C-5 9.35 -5 7.7 -5 6 C-4.34 6 -3.68 6 -3 6 C-2.87625 5.195625 -2.7525 4.39125 -2.625 3.5625 C-2.41875 2.716875 -2.2125 1.87125 -2 1 C-1.34 0.67 -0.68 0.34 0 0 Z " fill="#AA987D" transform="translate(259,165)"/>
<path d="M0 0 C2 1.3125 2 1.3125 4 3 C4 3.99 4 4.98 4 6 C4.66 6 5.32 6 6 6 C6.66 7.65 7.32 9.3 8 11 C4.71573897 9.94434467 3.42848444 8.38339648 1.75 5.5 C0 2 0 2 0 0 Z " fill="#D1C4A9" transform="translate(164,143)"/>
<path d="M0 0 C0.33 0.99 0.66 1.98 1 3 C-0.14453125 5.2265625 -0.14453125 5.2265625 -1.8125 7.625 C-2.35519531 8.42164063 -2.89789063 9.21828125 -3.45703125 10.0390625 C-5 12 -5 12 -7 13 C-5.35821735 8.22390502 -2.73453298 4.20617096 0 0 Z " fill="#635749" transform="translate(248,140)"/>
<path d="M0 0 C2.31 0.66 4.62 1.32 7 2 C6.67 3.65 6.34 5.3 6 7 C5.34 7 4.68 7 4 7 C3.566875 6.0409375 3.566875 6.0409375 3.125 5.0625 C2.17176549 2.84793921 2.17176549 2.84793921 0 2 C0 1.34 0 0.68 0 0 Z " fill="#CFC1AB" transform="translate(207,141)"/>
<path d="M0 0 C0.66 0 1.32 0 2 0 C0.5140084 4.59306496 -1.85014682 7.43569245 -5 11 C-5.33 10.34 -5.66 9.68 -6 9 C-5.05016642 7.49460339 -4.08988109 5.99579653 -3.125 4.5 C-2.59132812 3.6646875 -2.05765625 2.829375 -1.5078125 1.96875 C-0.76144531 0.99421875 -0.76144531 0.99421875 0 0 Z " fill="#767061" transform="translate(65,108)"/>
<path d="M0 0 C0.66 0 1.32 0 2 0 C0.41037341 4.03520597 -1.28232318 8.01811282 -3 12 C-3.99 12 -4.98 12 -6 12 C-4.43358249 7.69235185 -2.31663844 3.93828536 0 0 Z " fill="#615142" transform="translate(268,108)"/>
<path d="M0 0 C0.66 0.33 1.32 0.66 2 1 C0.02 3.97 -1.96 6.94 -4 10 C-4.66 9.67 -5.32 9.34 -6 9 C-5.34 7.68 -4.68 6.36 -4 5 C-3.34 5 -2.68 5 -2 5 C-1.34 3.35 -0.68 1.7 0 0 Z " fill="#B8A48C" transform="translate(245,187)"/>
<path d="M0 0 C1.32 0 2.64 0 4 0 C4.33 1.98 4.66 3.96 5 6 C4.01 6.33 3.02 6.66 2 7 C1.34 4.69 0.68 2.38 0 0 Z " fill="#A38F61" transform="translate(126,176)"/>
<path d="M0 0 C3.31256928 1.53993407 5.07771233 2.82822535 7 6 C7 6.99 7 7.98 7 9 C7.66 9.33 8.32 9.66 9 10 C8.01 10 7.02 10 6 10 C4.39453125 7.8125 4.39453125 7.8125 2.8125 5 C2.28269531 4.071875 1.75289063 3.14375 1.20703125 2.1875 C0.80871094 1.465625 0.41039063 0.74375 0 0 Z " fill="#B8AB89" transform="translate(96,132)"/>
<path d="M0 0 C4 4.75 4 4.75 4 7 C2.68 7 1.36 7 0 7 C0 6.34 0 5.68 0 5 C-0.66 5 -1.32 5 -2 5 C-2 4.34 -2 3.68 -2 3 C-1.34 3 -0.68 3 0 3 C0 2.01 0 1.02 0 0 Z " fill="#AF9B75" transform="translate(112,115)"/>
<path d="M0 0 C3.2626876 3.08632611 6.02235218 5.93483504 8 10 C7.67 10.66 7.34 11.32 7 12 C6.01287122 10.75627811 5.03560095 9.50472782 4.0625 8.25 C3.51722656 7.55390625 2.97195312 6.8578125 2.41015625 6.140625 C1.02574346 4.03907872 0.43713013 2.45678201 0 0 Z " fill="#7C7166" transform="translate(185,134)"/>
<path d="M0 0 C0.33 1.32 0.66 2.64 1 4 C-0.98 5.32 -2.96 6.64 -5 8 C-4.67 6.35 -4.34 4.7 -4 3 C-2.68 2.67 -1.36 2.34 0 2 C0 1.34 0 0.68 0 0 Z " fill="#C9B6A3" transform="translate(227,179)"/>
<path d="M0 0 C2 0 2 0 3.625 1.25 C5 3 5 3 5 7 C3.0625 6.3125 3.0625 6.3125 1 5 C0.25 2.375 0.25 2.375 0 0 Z " fill="#C7B79D" transform="translate(157,132)"/>
<path d="M0 0 C0.66 0 1.32 0 2 0 C2 1.65 2 3.3 2 5 C0.68 5.33 -0.64 5.66 -2 6 C-2 4.68 -2 3.36 -2 2 C-1.34 2 -0.68 2 0 2 C0 1.34 0 0.68 0 0 Z " fill="#97833D" transform="translate(165,182)"/>
<path d="M0 0 C2.5 2.3125 2.5 2.3125 5 5 C5 5.99 5 6.98 5 8 C4.34 8 3.68 8 3 8 C2.67 6.68 2.34 5.36 2 4 C1.01 4 0.02 4 -1 4 C-0.67 2.68 -0.34 1.36 0 0 Z " fill="#9E8660" transform="translate(142,162)"/>
<path d="M0 0 C2.91227269 3.28804981 4.49701212 5.59885603 5 10 C2.59927045 7.11912454 0.52708963 4.43595166 -1 1 C-0.67 0.67 -0.34 0.34 0 0 Z " fill="#BCAB84" transform="translate(147,116)"/>
<path d="M0 0 C0.33 0.99 0.66 1.98 1 3 C0.00390625 4.82421875 0.00390625 4.82421875 -1.4375 6.6875 C-1.91058594 7.31011719 -2.38367187 7.93273437 -2.87109375 8.57421875 C-3.24363281 9.04472656 -3.61617187 9.51523438 -4 10 C-4.33 9.34 -4.66 8.68 -5 8 C-4.67 7.01 -4.34 6.02 -4 5 C-3.34 5 -2.68 5 -2 5 C-1.7834375 4.0409375 -1.7834375 4.0409375 -1.5625 3.0625 C-1 1 -1 1 0 0 Z " fill="#E0D5C1" transform="translate(48,176)"/>
<path d="M0 0 C0.33 0.99 0.66 1.98 1 3 C0.01 4.485 0.01 4.485 -1 6 C-1.99 5.67 -2.98 5.34 -4 5 C-3.6875 3.0625 -3.6875 3.0625 -3 1 C-2.01 0.67 -1.02 0.34 0 0 Z " fill="#DCC9B0" transform="translate(37,158)"/>
<path d="M0 0 C3.26954202 0.56371414 4.82575883 1.49962266 7 4 C5.68 4.33 4.36 4.66 3 5 C2.01 3.35 1.02 1.7 0 0 Z " fill="#C5B173" transform="translate(147,115)"/>
<path d="M0 0 C0.66 0.33 1.32 0.66 2 1 C2 2.32 2 3.64 2 5 C0.68 5 -0.64 5 -2 5 C-2 3.68 -2 2.36 -2 1 C-1.34 0.67 -0.68 0.34 0 0 Z " fill="#D6C6A7" transform="translate(211,178)"/>
<path d="M0 0 C0.33 0.99 0.66 1.98 1 3 C1.66 3 2.32 3 3 3 C3 3.66 3 4.32 3 5 C3.66 5 4.32 5 5 5 C5 5.99 5 6.98 5 8 C2 7 2 7 0.3125 3.9375 C-0.120625 2.968125 -0.55375 1.99875 -1 1 C-0.67 0.67 -0.34 0.34 0 0 Z " fill="#AA9870" transform="translate(115,158)"/>
<path d="M0 0 C-0.33 1.65 -0.66 3.3 -1 5 C-2.65 4.67 -4.3 4.34 -6 4 C-2.25 0 -2.25 0 0 0 Z " fill="#CDB78E" transform="translate(92,115)"/>
</svg>
